<?xml version="1.0" encoding="iso-8859-1"?>
<!-- Generator: Adobe Illustrator 19.0.0, SVG Export Plug-In . SVG Version: 6.00 Build 0)  -->
<svg version="1.1" id="Layer_1" xmlns="http://www.w3.org/2000/svg" xmlns:xlink="http://www.w3.org/1999/xlink" x="0px" y="0px"
	 viewBox="0 0 512.672 512.672" style="enable-background:new 0 0 512.672 512.672;" xml:space="preserve">
<g>
	<g>
		<path d="M416.12,220.13c-26.124-38.447-67.602-63.714-113.749-69.291c-41.906-62.689-126.696-79.537-189.385-37.631
			c-57.684,38.56-77.274,114.254-45.538,175.956c-4.046,4.75-7.646,9.863-10.752,15.275c-37.156,6.396-62.092,41.703-55.695,78.859
			s41.703,62.092,78.859,55.695c2.171-0.374,4.322-0.852,6.447-1.434c30.83,22.163,71.393,25.447,105.387,8.533
			c50.962,34.591,117.165,37.173,170.667,6.656c10.154,2.744,20.629,4.122,31.147,4.096
			c65.979-0.167,119.331-53.789,119.165-119.768C512.527,280.046,472.092,231.07,416.12,220.13z M148.89,132.118
			c12.6-5.323,26.138-8.068,39.816-8.072c25.776,0.063,50.58,9.844,69.461,27.392c-57.545,8.498-106.025,47.387-126.805,101.717
			c-13.048,1.959-25.595,6.421-36.949,13.141C72.404,214.2,96.794,154.126,148.89,132.118z M471.852,371.417
			c-13.563,31.18-44.343,51.333-78.346,51.295c-5.271-0.015-10.528-0.529-15.701-1.536c9.367-8.157,17.655-17.477,24.661-27.733
			c2.71-3.856,1.781-9.178-2.074-11.888c-3.856-2.71-9.178-1.781-11.888,2.074c-0.04,0.057-0.079,0.114-0.117,0.171
			c-9.94,14.405-22.717,26.63-37.547,35.925v0.427c-2.901,1.792-5.803,3.499-8.533,5.035
			c-44.521,23.388-98.645,18.337-138.069-12.885c-5.776-4.56-13.824-4.904-19.968-0.853c-13.842,9.253-30.643,12.996-47.104,10.496
			h-1.707c-2.885-0.499-5.736-1.183-8.533-2.048l-2.304-0.768c-2.651-0.892-5.244-1.947-7.765-3.157l-2.987-1.792
			c-1.877-1.024-3.669-2.048-5.376-3.243l-2.645-1.792c-11.157-8.087-19.606-19.362-24.235-32.341
			c-1.579-4.454-6.469-6.784-10.923-5.205s-6.784,6.469-5.205,10.923c2.768,7.772,6.648,15.102,11.52,21.76
			c-2.527,0.754-5.133,1.212-7.765,1.365c-18.851,0.259-34.343-14.813-34.603-33.664c-0.259-18.851,14.813-34.344,33.664-34.603
			h0.939c7.385,0,14.572,2.395,20.48,6.827c3.767,2.832,9.117,2.074,11.949-1.693c2.832-3.767,2.074-9.117-1.693-11.949
			c-0.005-0.004-0.01-0.008-0.016-0.012c-4.324-3.239-9.134-5.774-14.251-7.509c10.733-20.467,31.091-34.115,54.101-36.267
			c-1.062,5.273-1.831,10.6-2.304,15.957c-0.283,4.704,3.302,8.747,8.006,9.03c0.176,0.011,0.352,0.016,0.527,0.015
			c4.52,0.008,8.262-3.51,8.533-8.021c0.607-9.986,2.383-19.867,5.291-29.44c1.024-3.328,2.133-6.571,3.413-9.728l0.683-1.707
			c1.024-2.389,2.048-4.779,3.157-7.083c1.109-2.304,1.877-3.669,2.816-5.461l1.707-2.816c3.216-5.524,6.838-10.801,10.837-15.787
			c44.268-55.116,124.834-63.911,179.95-19.643c8.479,6.81,16.055,14.672,22.546,23.397c-13.29,1.024-26.25,4.648-38.144,10.667
			c-4.258,2.02-6.072,7.11-4.052,11.368c2.02,4.258,7.11,6.072,11.368,4.052c0.152-0.072,0.302-0.149,0.449-0.23
			c15.965-8.234,34.121-11.221,51.883-8.533c6.101,0.939,12.081,2.542,17.835,4.779l3.328,1.536
			C470.857,277.927,490.651,328.2,471.852,371.417z"/>
	</g>
</g>
<g>
	<g>
		<path d="M158.499,343.864c-1.31-5.28-2.279-10.638-2.901-16.043c-0.589-4.713-4.887-8.056-9.6-7.467
			c-4.713,0.589-8.056,4.887-7.467,9.6c0.75,6.125,1.89,12.196,3.413,18.176c1.178,4.571,5.839,7.322,10.411,6.144
			C156.926,353.096,159.677,348.435,158.499,343.864z"/>
	</g>
</g>
<g>
	<g>
		<path d="M330.177,266.747c-3.284-2.684-8.04-2.549-11.166,0.317c-3.368,3.556-6.476,7.349-9.301,11.349
			c-2.986,3.646-2.451,9.023,1.195,12.009c3.646,2.986,9.023,2.451,12.009-1.195c0.259-0.316,0.495-0.651,0.706-1.001
			c2.361-3.337,4.956-6.503,7.765-9.472C334.366,275.105,333.826,269.729,330.177,266.747z"/>
	</g>
</g>
<g>
	<g>
		<path d="M35.107,209.378h-25.6c-4.713,0-8.533,3.821-8.533,8.533c0,4.713,3.82,8.533,8.533,8.533h25.6
			c4.713,0,8.533-3.821,8.533-8.533C43.64,213.199,39.819,209.378,35.107,209.378z"/>
	</g>
</g>
<g>
	<g>
		<path d="M188.707,38.712c-4.713,0-8.533,3.82-8.533,8.533v25.6c0,4.713,3.82,8.533,8.533,8.533s8.533-3.82,8.533-8.533v-25.6
			C197.24,42.532,193.419,38.712,188.707,38.712z"/>
	</g>
</g>
<g>
	<g>
		<path d="M316.187,87.693c-3.065-3.58-8.452-3.996-12.032-0.931c-0.334,0.286-0.645,0.597-0.931,0.931l-18.091,18.091
			c-3.299,3.365-3.246,8.768,0.119,12.067c1.566,1.535,3.662,2.409,5.854,2.439c2.268,0.013,4.448-0.877,6.059-2.475l18.091-18.091
			C318.835,96.66,319.252,91.273,316.187,87.693z"/>
	</g>
</g>
<g>
	<g>
		<path d="M86.307,111.757L68.045,93.666c-3.58-3.065-8.967-2.649-12.032,0.931c-2.736,3.195-2.736,7.906,0,11.101l18.091,18.347
			c3.393,3.37,8.876,3.351,12.245-0.043C89.719,120.609,89.7,115.127,86.307,111.757z"/>
	</g>
</g>
<g>
</g>
<g>
</g>
<g>
</g>
<g>
</g>
<g>
</g>
<g>
</g>
<g>
</g>
<g>
</g>
<g>
</g>
<g>
</g>
<g>
</g>
<g>
</g>
<g>
</g>
<g>
</g>
<g>
</g>
</svg>
