<?xml version="1.0" encoding="iso-8859-1"?>
<!-- Generator: Adobe Illustrator 19.0.0, SVG Export Plug-In . SVG Version: 6.00 Build 0)  -->
<svg version="1.1" id="Layer_1" xmlns="http://www.w3.org/2000/svg" xmlns:xlink="http://www.w3.org/1999/xlink" x="0px" y="0px"
	 viewBox="0 0 494.933 494.933" style="enable-background:new 0 0 494.933 494.933;" xml:space="preserve">
<g>
	<g>
		<path d="M85.333,238.933h-76.8c-4.713,0-8.533,3.82-8.533,8.533S3.82,256,8.533,256h76.8c4.713,0,8.533-3.82,8.533-8.533
			S90.046,238.933,85.333,238.933z"/>
	</g>
</g>
<g>
	<g>
		<path d="M486.4,238.933h-76.8c-4.713,0-8.533,3.82-8.533,8.533S404.887,256,409.6,256h76.8c4.713,0,8.533-3.82,8.533-8.533
			S491.113,238.933,486.4,238.933z"/>
	</g>
</g>
<g>
	<g>
		<path d="M247.467,0c-4.713,0-8.533,3.82-8.533,8.533v76.8c0,4.713,3.82,8.533,8.533,8.533S256,90.046,256,85.333v-76.8
			C256,3.82,252.18,0,247.467,0z"/>
	</g>
</g>
<g>
	<g>
		<path d="M247.467,401.067c-4.713,0-8.533,3.82-8.533,8.533v76.8c0,4.713,3.82,8.533,8.533,8.533S256,491.113,256,486.4v-76.8
			C256,404.887,252.18,401.067,247.467,401.067z"/>
	</g>
</g>
<g>
	<g>
		<path d="M472.235,329.045l-8.533-3.328c-4.639-0.831-9.073,2.257-9.904,6.896c-0.612,3.418,0.908,6.867,3.845,8.72l8.533,3.328
			c4.639,0.831,9.073-2.257,9.904-6.896C476.692,334.347,475.172,330.899,472.235,329.045z"/>
	</g>
</g>
<g>
	<g>
		<path d="M438.357,315.733l-14.165-5.717c-3.862-2.702-9.182-1.761-11.884,2.101s-1.761,9.182,2.101,11.884
			c1.108,0.775,2.385,1.276,3.724,1.461l14.165,5.717c4.669,0.645,8.976-2.617,9.62-7.286
			C442.357,320.72,440.982,317.569,438.357,315.733z"/>
	</g>
</g>
<g>
	<g>
		<path d="M408.5,303.307c-0.956-0.647-2.033-1.094-3.167-1.312l-4.267-1.707c-3.916-2.622-9.216-1.573-11.838,2.344
			s-1.573,9.216,2.344,11.838c0.912,0.611,1.934,1.04,3.009,1.264l4.352,1.707c3.903,2.642,9.208,1.62,11.85-2.283
			C413.425,311.254,412.403,305.949,408.5,303.307z"/>
	</g>
</g>
<g>
	<g>
		<path d="M103.361,180.464c-0.912-0.611-1.934-1.04-3.009-1.264l-28.843-12.032c-4.468-1.5-9.306,0.906-10.805,5.374
			c-1.371,4.085,0.518,8.552,4.405,10.413l28.757,11.691c3.916,2.622,9.216,1.573,11.838-2.343
			C108.327,188.386,107.278,183.086,103.361,180.464z"/>
	</g>
</g>
<g>
	<g>
		<path d="M46.878,157.235c-0.315-0.151-0.638-0.282-0.969-0.393l-6.485-2.645c-4.251-2.035-9.346-0.238-11.381,4.013
			c-2.035,4.251-0.238,9.347,4.013,11.381c0.315,0.151,0.638,0.282,0.969,0.393l6.485,2.645c4.251,2.035,9.346,0.238,11.381-4.013
			C52.925,164.366,51.129,159.27,46.878,157.235z"/>
	</g>
</g>
<g>
	<g>
		<path d="M328.19,49.205c-4.251-2.035-9.347-0.238-11.381,4.013c-0.151,0.315-0.282,0.638-0.393,0.969l-16.128,39.68
			c-1.803,4.354,0.266,9.346,4.62,11.149c0.024,0.01,0.049,0.02,0.073,0.03c4.359,1.758,9.319-0.341,11.093-4.693l16.128-39.765
			C334.238,56.336,332.441,51.24,328.19,49.205z"/>
	</g>
</g>
<g>
	<g>
		<path d="M340.905,17.803c-4.251-2.035-9.346-0.238-11.381,4.013c-0.151,0.315-0.282,0.638-0.393,0.969l-4.267,10.24
			c-1.787,4.361,0.3,9.345,4.661,11.132c0.039,0.016,0.078,0.032,0.118,0.047c4.359,1.758,9.319-0.341,11.093-4.693l4.181-10.325
			C346.952,24.933,345.156,19.838,340.905,17.803z"/>
	</g>
</g>
<g>
	<g>
		<path d="M174.848,427.264c-4.359-1.758-9.319,0.341-11.093,4.693l-9.472,23.467c-2.035,4.251-0.238,9.347,4.013,11.381
			c4.251,2.035,9.346,0.238,11.381-4.013c0.151-0.315,0.282-0.638,0.393-0.969l9.131-23.381
			C181.055,434.153,179.115,429.17,174.848,427.264z"/>
	</g>
</g>
<g>
	<g>
		<path d="M190.026,389.918c-0.024-0.01-0.049-0.02-0.073-0.03c-4.359-1.758-9.319,0.341-11.093,4.693l-4.779,11.861
			c-2.035,4.251-0.238,9.347,4.013,11.381s9.346,0.238,11.381-4.013c0.151-0.315,0.282-0.638,0.393-0.969l4.779-11.776
			C196.448,396.712,194.38,391.721,190.026,389.918z"/>
	</g>
</g>
<g>
	<g>
		<path d="M51.283,327.285c-1.5-4.468-6.338-6.874-10.805-5.374c-0.331,0.111-0.654,0.242-0.969,0.393l-6.4,2.56
			c-4.468,1.5-6.874,6.338-5.374,10.805c1.5,4.468,6.338,6.874,10.805,5.374c0.331-0.111,0.654-0.242,0.969-0.393l6.4-2.56
			C50.377,336.591,52.783,331.753,51.283,327.285z"/>
	</g>
</g>
<g>
	<g>
		<path d="M105.045,304.981c-1.774-4.353-6.734-6.451-11.093-4.693l-28.843,11.691c-4.468,1.5-6.874,6.338-5.374,10.805
			c1.5,4.468,6.338,6.874,10.805,5.374c0.331-0.111,0.654-0.242,0.969-0.393l28.843-12.032
			C104.523,313.964,106.583,309.243,105.045,304.981z"/>
	</g>
</g>
<g>
	<g>
		<path d="M418.217,179.061c-1.5-4.468-6.338-6.874-10.805-5.374c-0.331,0.111-0.654,0.242-0.969,0.393l-11.861,5.12
			c-4.614,0.96-7.576,5.478-6.617,10.092c0.96,4.614,5.478,7.576,10.092,6.617c1.075-0.224,2.097-0.653,3.009-1.264l11.776-4.779
			C417.31,188.367,419.716,183.529,418.217,179.061z"/>
	</g>
</g>
<g>
	<g>
		<path d="M476.589,154.165c-1.861-3.887-6.327-5.777-10.413-4.405l-34.133,13.653c-4.555,1.211-7.265,5.886-6.053,10.44
			c1.088,4.089,5.007,6.763,9.211,6.285c1.133-0.094,2.235-0.413,3.243-0.939l34.133-13.653
			C476.827,163.512,478.624,158.416,476.589,154.165z"/>
	</g>
</g>
<g>
	<g>
		<path d="M195.909,96.876c-0.224-1.075-0.653-2.097-1.264-3.009l-4.779-11.861c-1.791-4.383-6.796-6.484-11.179-4.693
			c-4.383,1.791-6.484,6.796-4.693,11.179l5.205,11.861c0.96,4.614,5.478,7.576,10.092,6.617
			C193.906,106.009,196.869,101.49,195.909,96.876z"/>
	</g>
</g>
<g>
	<g>
		<path d="M178.91,55.155c-0.111-0.331-0.242-0.654-0.393-0.969l-12.629-31.488c-1.5-4.468-6.338-6.874-10.805-5.374
			c-4.468,1.5-6.874,6.338-5.374,10.805c0.111,0.331,0.242,0.654,0.393,0.969l12.629,31.488c1.5,4.468,6.338,6.874,10.805,5.374
			S180.41,59.623,178.91,55.155z"/>
	</g>
</g>
<g>
	<g>
		<path d="M345.225,467.059c-0.111-0.331-0.242-0.654-0.393-0.969l-6.741-17.067c-2.035-4.251-7.13-6.047-11.381-4.013
			c-3.887,1.861-5.777,6.327-4.405,10.413l6.741,17.067c1.5,4.468,6.338,6.874,10.805,5.374S346.725,471.527,345.225,467.059z"/>
	</g>
</g>
<g>
	<g>
		<path d="M324.659,415.945c-0.111-0.331-0.242-0.654-0.393-0.969l-8.533-20.309c-1.5-4.468-6.337-6.874-10.805-5.374
			c-4.468,1.5-6.874,6.337-5.374,10.805c0.111,0.331,0.242,0.654,0.393,0.969l8.533,20.309c1.5,4.468,6.338,6.874,10.805,5.374
			C323.753,425.25,326.159,420.413,324.659,415.945z"/>
	</g>
</g>
<g>
	<g>
		<path d="M136.731,356.203c-2.945-2.154-6.935-2.197-9.926-0.107l-36.181,36.437c-3.98,2.523-5.162,7.796-2.638,11.776
			c2.523,3.98,7.796,5.162,11.776,2.638c1.063-0.674,1.964-1.575,2.638-2.638l36.181-36.181
			C141.363,364.324,140.535,358.985,136.731,356.203z"/>
	</g>
</g>
<g>
	<g>
		<path d="M401.671,90.624c-2.789-1.768-6.348-1.768-9.138,0l-36.181,36.181c-3.302,3.363-3.252,8.766,0.111,12.067
			c1.525,1.497,3.556,2.367,5.691,2.439c2.268,0.013,4.448-0.877,6.059-2.475l36.096-36.437
			C406.833,98.42,405.651,93.147,401.671,90.624z"/>
	</g>
</g>
<g>
	<g>
		<path d="M138.837,126.805L102.4,90.624c-3.98-2.523-9.253-1.342-11.776,2.638c-1.768,2.789-1.768,6.348,0,9.138l36.181,36.437
			c3.58,3.065,8.966,2.649,12.032-0.931C141.573,134.712,141.573,130,138.837,126.805z"/>
	</g>
</g>
<g>
	<g>
		<path d="M404.309,392.533l-36.181-36.437c-3.58-3.065-8.967-2.649-12.032,0.931c-2.736,3.195-2.736,7.906,0,11.101l36.437,36.181
			c3.98,2.523,9.253,1.342,11.776-2.638C406.078,398.882,406.078,395.323,404.309,392.533z"/>
	</g>
</g>
<g>
	<g>
		<path d="M247.467,110.933c-75.405,0-136.533,61.128-136.533,136.533S172.061,384,247.467,384S384,322.872,384,247.467
			S322.872,110.933,247.467,110.933z M247.467,349.867c-56.554,0-102.4-45.846-102.4-102.4c0-56.554,45.846-102.4,102.4-102.4
			c56.554,0,102.4,45.846,102.4,102.4C349.867,304.021,304.021,349.867,247.467,349.867z"/>
	</g>
</g>
<g>
	<g>
		<path d="M225.024,302.848c-12.693-5.134-23.237-14.473-29.867-26.453c-2.356-4.124-7.61-5.556-11.733-3.2
			c-4.124,2.356-5.556,7.61-3.2,11.733c8.502,15.449,22.061,27.501,38.4,34.133c4.477,1.767,9.539-0.43,11.307-4.907
			C231.698,309.678,229.501,304.615,225.024,302.848z"/>
	</g>
</g>
<g>
	<g>
		<path d="M264.491,314.069c-0.589-4.713-4.887-8.056-9.6-7.467c-2.46,0.352-4.939,0.551-7.424,0.597
			c-4.713,0-8.533,3.82-8.533,8.533s3.82,8.533,8.533,8.533c3.195-0.001,6.387-0.201,9.557-0.597
			C261.737,323.08,265.08,318.782,264.491,314.069z"/>
	</g>
</g>
<g>
</g>
<g>
</g>
<g>
</g>
<g>
</g>
<g>
</g>
<g>
</g>
<g>
</g>
<g>
</g>
<g>
</g>
<g>
</g>
<g>
</g>
<g>
</g>
<g>
</g>
<g>
</g>
<g>
</g>
</svg>
