<?xml version="1.0" encoding="iso-8859-1"?>
<!-- Generator: Adobe Illustrator 19.0.0, SVG Export Plug-In . SVG Version: 6.00 Build 0)  -->
<svg version="1.1" id="Layer_1" xmlns="http://www.w3.org/2000/svg" xmlns:xlink="http://www.w3.org/1999/xlink" x="0px" y="0px"
	 viewBox="0 0 323.04 323.04" style="enable-background:new 0 0 323.04 323.04;" xml:space="preserve">
<g>
	<g>
		<path d="M266.865,259.898c-2.492-3.109-5.993-5.248-9.896-6.047c-68.134-14.707-111.445-81.862-96.738-149.996
			c5.878-27.229,20.599-51.749,41.869-69.738c2.389-2.048,4.779-4.608,7.339-6.741c8.43,2.806,16.528,6.526,24.149,11.093
			c1.209,0.859,2.62,1.389,4.096,1.536c4.713,0.033,8.56-3.761,8.593-8.473c0.022-3.094-1.634-5.958-4.326-7.484
			c-9.834-5.892-20.206-10.835-30.976-14.763c-4.011-1.365-14.507-4.011-16.469-4.523C107.922-14.039,22.49,40.908,3.688,127.491
			s36.145,172.015,122.728,190.817c48.789,10.595,99.729-2.128,137.807-34.42C271.577,277.993,272.76,267.252,266.865,259.898z
			 M160.884,287.472C91.134,287.16,34.845,230.364,35.157,160.614C35.457,93.625,88.01,38.525,154.91,35.056
			c-52.765,71.059-37.935,171.438,33.124,224.203c8.331,6.186,17.242,11.548,26.609,16.011
			C197.844,283.254,179.485,287.422,160.884,287.472z"/>
	</g>
</g>
<g>
	<g>
		<path d="M295.71,238.832c-3.982-2.522-9.253-1.338-11.775,2.644c0,0.001-0.001,0.001-0.001,0.002
			c-2.105,3.3-4.324,6.514-6.656,9.643c-2.831,3.768-2.072,9.117,1.696,11.948c3.768,2.831,9.117,2.072,11.948-1.696
			c0.003-0.004,0.006-0.008,0.009-0.012c2.617-3.527,5.12-7.14,7.509-10.837C300.889,246.536,299.671,241.322,295.71,238.832z"/>
	</g>
</g>
<g>
	<g>
		<path d="M314.484,176.539c-4.664-0.605-8.938,2.677-9.557,7.339c-1.54,11.249-4.404,22.277-8.533,32.853
			c-1.697,4.406,0.5,9.354,4.907,11.051c4.406,1.697,9.354-0.5,11.051-4.907c4.562-11.819,7.713-24.135,9.387-36.693
			C322.396,181.516,319.149,177.199,314.484,176.539z"/>
	</g>
</g>
<g>
	<g>
		<path d="M323.02,153.37c-0.001-0.014-0.002-0.028-0.003-0.042c0-2.56-0.228-5.12-0.683-7.68c-0.542-4.689-4.783-8.051-9.472-7.509
			s-8.051,4.783-7.509,9.472c0,2.219,0.427,4.523,0.597,6.827c0.271,4.512,4.013,8.029,8.533,8.021h0.597
			C319.783,162.142,323.337,158.072,323.02,153.37z"/>
	</g>
</g>
<g>
	<g>
		<path d="M319.189,126.241c-0.004-0.016-0.008-0.032-0.012-0.049c-0.626-2.674-1.337-5.348-2.133-8.021
			c-1.272-4.619-6.048-7.331-10.667-6.059s-7.331,6.048-6.059,10.667c0.683,2.389,1.365,4.779,1.963,7.168
			c0.929,3.935,4.491,6.679,8.533,6.571h2.048C317.447,135.427,320.28,130.826,319.189,126.241z"/>
	</g>
</g>
<g>
	<g>
		<path d="M307.401,93.936l-1.451-3.755c-2.02-4.258-7.109-6.072-11.367-4.052s-6.072,7.109-4.052,11.367
			c0.072,0.152,0.149,0.302,0.23,0.45l1.28,3.413c2.168,4.184,7.318,5.819,11.503,3.651
			C307.564,102.928,309.257,98.067,307.401,93.936z"/>
	</g>
</g>
<g>
	<g>
		<path d="M285.306,59.811c-0.002-0.003-0.005-0.005-0.007-0.008l-2.389-2.731c-3.265-3.399-8.667-3.508-12.065-0.243
			c-3.191,3.065-3.51,8.061-0.734,11.507l1.707,2.475c2.915,3.703,8.28,4.342,11.983,1.427c0.163-0.129,0.322-0.263,0.475-0.403
			C287.881,68.799,288.342,63.416,285.306,59.811z"/>
	</g>
</g>
<g>
	<g>
		<path d="M267.636,41.798l-2.731-2.304c-3.629-3.016-9.016-2.52-12.032,1.109c-3.016,3.629-2.52,9.016,1.109,12.032l2.475,2.048
			c3.653,2.977,9.028,2.429,12.006-1.224C271.311,49.964,270.949,44.856,267.636,41.798z"/>
	</g>
</g>
<g>
	<g>
		<path d="M86.132,217.499c-1.365-1.536-2.475-3.1-3.328-4.693c-2.657-3.892-7.967-4.893-11.859-2.236
			c-3.801,2.595-4.859,7.737-2.392,11.622c1.252,1.877,2.56,3.726,3.925,5.547c2.828,3.77,8.176,4.534,11.947,1.707
			C88.195,226.618,88.959,221.269,86.132,217.499z"/>
	</g>
</g>
<g>
	<g>
		<path d="M114.292,242.502l-4.608-2.901c-3.978-2.527-9.252-1.35-11.778,2.628c-2.467,3.885-1.409,9.027,2.392,11.622l5.547,3.413
			c4.269,1.997,9.348,0.155,11.345-4.114C118.957,249.37,117.731,244.865,114.292,242.502z"/>
	</g>
</g>
<g>
	<g>
		<path d="M148.65,260.946c-0.256-3.589-2.735-6.631-6.198-7.607c-3.168-0.633-6.301-1.431-9.387-2.389
			c-4.501-1.414-9.295,1.089-10.709,5.589c-1.414,4.501,1.089,9.295,5.589,10.709c3.646,1.131,7.349,2.071,11.093,2.816h1.707
			C145.446,269.729,148.985,265.646,148.65,260.946z"/>
	</g>
</g>
<g>
</g>
<g>
</g>
<g>
</g>
<g>
</g>
<g>
</g>
<g>
</g>
<g>
</g>
<g>
</g>
<g>
</g>
<g>
</g>
<g>
</g>
<g>
</g>
<g>
</g>
<g>
</g>
<g>
</g>
</svg>
