<?xml version="1.0" encoding="iso-8859-1"?>
<!-- Generator: Adobe Illustrator 19.0.0, SVG Export Plug-In . SVG Version: 6.00 Build 0)  -->
<svg version="1.1" id="Layer_1" xmlns="http://www.w3.org/2000/svg" xmlns:xlink="http://www.w3.org/1999/xlink" x="0px" y="0px"
	 viewBox="0 0 514.216 514.216" style="enable-background:new 0 0 514.216 514.216;" xml:space="preserve">
<g>
	<g>
		<path d="M427.392,96.768c-3.871-1.101-7.795-2.005-11.757-2.71C364.941,20.246,264.009,1.505,190.197,52.199
			c-26.845,18.437-47.516,44.531-59.319,74.883c-31.462,4.614-59.025,23.514-74.667,51.2c-37.109,6.665-61.789,42.15-55.124,79.259
			c6.665,37.109,42.15,61.789,79.259,55.124c1.899-0.341,3.783-0.763,5.647-1.263c30.83,22.163,71.393,25.447,105.387,8.533
			c50.962,34.591,117.165,37.173,170.667,6.656c63.464,18.045,129.54-18.775,147.585-82.239
			C527.676,180.889,490.856,114.813,427.392,96.768z M471.538,245.259c-13.563,31.18-44.343,51.333-78.346,51.295
			c-5.271-0.015-10.528-0.529-15.701-1.536c9.375-8.182,17.663-17.531,24.661-27.819c2.71-3.856,1.782-9.178-2.074-11.888
			c-3.856-2.71-9.178-1.782-11.888,2.074c-0.04,0.057-0.079,0.114-0.118,0.172c-9.942,14.404-22.718,26.628-37.547,35.925
			l-0.768,0.427c-2.816,1.792-5.717,3.413-8.533,4.949c-44.543,23.426-98.712,18.374-138.155-12.885
			c-5.776-4.56-13.824-4.904-19.968-0.853c-13.842,9.253-30.643,12.996-47.104,10.496h-1.621c-2.885-0.499-5.736-1.183-8.533-2.048
			l-2.219-0.768c-2.651-0.892-5.244-1.947-7.765-3.157l-2.219-1.621c-2.048-0.597-3.755-1.707-5.461-2.901l-2.645-1.707
			c-11.157-8.087-19.606-19.362-24.235-32.341c-1.579-4.454-6.469-6.784-10.923-5.205s-6.784,6.469-5.205,10.923
			c2.761,7.775,6.642,15.106,11.52,21.76c-2.544,0.609-5.149,0.924-7.765,0.939c-18.851,0-34.133-15.282-34.133-34.133
			c-0.007-18.491,14.711-33.625,33.195-34.133h0.939c7.385,0,14.572,2.395,20.48,6.827c3.77,2.828,9.119,2.064,11.947-1.707
			s2.064-9.119-1.707-11.947c-4.324-3.239-9.134-5.774-14.251-7.509c10.733-20.467,31.091-34.115,54.101-36.267
			c-1.062,5.273-1.831,10.6-2.304,15.957c-0.283,4.704,3.302,8.747,8.006,9.03c0.176,0.011,0.351,0.016,0.527,0.015
			c4.52,0.008,8.262-3.51,8.533-8.021c0.607-9.986,2.383-19.867,5.291-29.44c1.024-3.243,2.133-6.485,3.413-9.643l0.939-2.219
			c0.939-2.219,1.877-4.437,2.901-6.571c1.024-2.133,1.963-3.84,3.072-5.803l1.451-2.475c3.212-5.553,6.835-10.859,10.837-15.872
			c44.268-55.116,124.834-63.911,179.95-19.643c8.479,6.81,16.055,14.672,22.546,23.397c-13.29,1.026-26.249,4.65-38.144,10.667
			c-4.131,2.268-5.641,7.456-3.372,11.587c2.174,3.959,7.057,5.538,11.138,3.602c15.915-8.199,34.006-11.184,51.712-8.533
			c6.159,0.927,12.197,2.53,18.005,4.779l3.328,1.536C470.542,151.769,490.337,202.043,471.538,245.259z"/>
	</g>
</g>
<g>
	<g>
		<path d="M413.502,430.101c-6.773-2.726-13.124-6.404-18.859-10.923c-2.981-2.15-7.003-2.15-9.984,0
			c-36.921,24.597-83.522,29.629-124.843,13.483c-4.457-1.53-9.311,0.843-10.842,5.3c-1.437,4.187,0.566,8.778,4.612,10.572
			c13.829,5.415,28.376,8.779,43.179,9.984c4.267,0.341,8.533,0.512,12.8,0.512c28.048,0.01,55.549-7.758,79.445-22.443
			c5.683,3.9,11.779,7.162,18.176,9.728c4.477,1.744,9.52-0.472,11.264-4.949C420.195,436.888,417.979,431.845,413.502,430.101z"/>
	</g>
</g>
<g>
	<g>
		<path d="M225.512,461.845c-13.779-5.63-26.659-13.249-38.229-22.613c-3.676-2.969-9.063-2.396-12.032,1.28
			c-2.969,3.676-2.396,9.063,1.28,12.032c12.92,10.403,27.295,18.855,42.667,25.088c4.511,1.365,9.274-1.184,10.64-5.695
			C231.038,467.969,229.214,463.712,225.512,461.845z"/>
	</g>
</g>
<g>
	<g>
		<path d="M289.512,473.194c-7.804,0.308-15.62,0.023-23.381-0.853c-4.713-0.542-8.973,2.839-9.515,7.552s2.839,8.973,7.552,9.515
			c6.402,0.734,12.841,1.104,19.285,1.109h6.656c4.784-0.165,8.528-4.176,8.363-8.96S294.296,473.029,289.512,473.194z"/>
	</g>
</g>
<g>
	<g>
		<path d="M444.392,435.562c-2.842,0.157-5.691,0.157-8.533,0c-4.713-0.377-8.839,3.138-9.216,7.851
			c-0.377,4.713,3.138,8.839,7.851,9.216c2.56,0,5.12,0,7.765,0h2.133c4.713,0,8.533-3.82,8.533-8.533
			S449.105,435.562,444.392,435.562z"/>
	</g>
</g>
<g>
	<g>
		<path d="M469.367,366.106c-0.103-0.061-0.208-0.12-0.313-0.176c-4.101-2.302-9.291-0.852-11.605,3.243
			c-8.863,15.923-26.861,24.46-44.8,21.248c-5.764-1.032-11.254-3.24-16.128-6.485c-2.788-1.765-6.343-1.765-9.131,0
			c-13.439,8.205-29.089,12.05-44.8,11.008c-4.713-0.306-8.782,3.266-9.088,7.979c-0.306,4.713,3.266,8.782,7.979,9.088h6.229
			c15.368-0.007,30.495-3.818,44.032-11.093c28.681,15.639,64.606,5.337,80.64-23.125
			C474.776,373.732,473.426,368.501,469.367,366.106z"/>
	</g>
</g>
<g>
	<g>
		<path d="M460.368,340.793c-2.601-3.93-7.895-5.008-11.825-2.408c-0.194,0.129-0.383,0.265-0.567,0.409
			c-24.74,17.747-56.552,22.391-85.333,12.459c-2.449-0.844-5.149-0.53-7.339,0.853c-48.813,31.161-112.008,27.975-157.44-7.936
			c-2.981-2.15-7.003-2.15-9.984,0c-28.92,18.992-66.968,16.302-92.928-6.571c-2.351-2.34-5.846-3.106-8.96-1.963
			c-3.193,1.4-6.546,2.403-9.984,2.987c-4.713,0.778-7.903,5.229-7.125,9.941c0.778,4.713,5.229,7.903,9.941,7.125
			c2.895-0.528,5.747-1.27,8.533-2.219c29.966,23.567,71.209,26.669,104.363,7.851c26.284,19.146,58.021,29.346,90.539,29.099
			c4.011,0,7.936,0,11.947-0.512l-0.853,1.109c-14.961,17.598-41.211,20.095-59.221,5.632c-2.584-2.091-6.147-2.49-9.131-1.024
			c-26.804,13.122-58.783,9.528-82.005-9.216c-2.869-2.306-6.894-2.513-9.984-0.512c-8.625,5.51-17.842,10.032-27.477,13.483
			c-4.454,1.673-6.708,6.64-5.035,11.093c1.673,4.454,6.64,6.708,11.093,5.035c8.887-3.211,17.457-7.239,25.6-12.032
			c26.501,18.675,60.763,22.353,90.624,9.728c27.511,18.207,64.572,10.664,82.779-16.847c2.028-3.064,3.768-6.308,5.2-9.692
			c15.971-3.578,31.268-9.685,45.312-18.091c33.009,10.031,68.807,4.133,96.853-15.957
			C461.891,350.018,462.969,344.724,460.368,340.793z"/>
	</g>
</g>
<g>
	<g>
		<path d="M86.12,414.016c-0.589-4.76-4.925-8.141-9.685-7.552l-8.107,1.024c-4.713,0.165-8.4,4.119-8.235,8.832
			c0.165,4.713,4.119,8.4,8.832,8.235h0.597c3.015,0,6.03-0.284,9.045-0.853C83.328,423.112,86.71,418.776,86.12,414.016z"/>
	</g>
</g>
<g>
	<g>
		<path d="M481.872,315.206c-3.704-2.913-9.069-2.272-11.983,1.432c-0.144,0.183-0.281,0.372-0.409,0.567
			c-1.963,2.728-4.071,5.349-6.315,7.851c-2.95,3.676-2.361,9.046,1.314,11.996c3.406,2.733,8.326,2.454,11.401-0.647
			c2.635-2.939,5.113-6.015,7.424-9.216C486.218,323.485,485.577,318.12,481.872,315.206z"/>
	</g>
</g>
<g>
	<g>
		<path d="M48.214,333.863c-0.202-0.129-0.41-0.248-0.622-0.36c-2.528-1.462-4.901-3.178-7.083-5.12
			c-3.676-2.95-9.046-2.361-11.996,1.314c-2.733,3.406-2.454,8.326,0.647,11.4c3.05,2.717,6.366,5.118,9.899,7.168
			c3.977,2.528,9.251,1.353,11.779-2.624C53.367,341.665,52.192,336.391,48.214,333.863z"/>
	</g>
</g>
<g>
	<g>
		<path d="M158.526,217.621c-1.361-5.249-2.387-10.579-3.072-15.957c-0.589-4.713-4.887-8.056-9.6-7.467
			c-4.713,0.589-8.056,4.887-7.467,9.6c0.748,6.125,1.888,12.197,3.413,18.176c0.998,3.709,4.351,6.293,8.192,6.315
			c4.71,0.15,8.651-3.547,8.801-8.257C158.819,219.219,158.729,218.408,158.526,217.621z"/>
	</g>
</g>
<g>
	<g>
		<path d="M331.679,140.626c-3.185-3.474-8.582-3.709-12.057-0.524c-0.301,0.276-0.582,0.574-0.841,0.89
			c-3.364,3.559-6.473,7.351-9.301,11.349c-2.687,3.872-1.726,9.189,2.146,11.876c1.401,0.972,3.061,1.502,4.766,1.522
			c2.777,0.015,5.387-1.322,6.997-3.584c2.361-3.337,4.956-6.502,7.765-9.472C334.629,149.498,334.864,144.1,331.679,140.626z"/>
	</g>
</g>
<g>
</g>
<g>
</g>
<g>
</g>
<g>
</g>
<g>
</g>
<g>
</g>
<g>
</g>
<g>
</g>
<g>
</g>
<g>
</g>
<g>
</g>
<g>
</g>
<g>
</g>
<g>
</g>
<g>
</g>
</svg>
