<?xml version="1.0" encoding="iso-8859-1"?>
<!-- Generator: Adobe Illustrator 19.0.0, SVG Export Plug-In . SVG Version: 6.00 Build 0)  -->
<svg version="1.1" id="Layer_1" xmlns="http://www.w3.org/2000/svg" xmlns:xlink="http://www.w3.org/1999/xlink" x="0px" y="0px"
	 viewBox="0 0 509.828 509.828" style="enable-background:new 0 0 509.828 509.828;" xml:space="preserve">
<g>
	<g>
		<path d="M421.77,195.192c-3.01-0.821-6.051-1.524-9.117-2.107c-30.046-44.217-80.087-70.629-133.547-70.485
			c-45.419,0.138-88.72,19.221-119.467,52.651c0-0.512,0-0.939,0-1.451c0.029-30.091,13.293-58.646,36.267-78.08
			c7.189-6.096,8.074-16.866,1.978-24.055c-2.428-2.863-5.733-4.846-9.402-5.641C114.779,50.094,42.117,96.929,26.188,170.633
			c-2.043,9.453-3.076,19.096-3.081,28.767c0.057,28.369,9.011,56.006,25.6,79.019c-36.119,10.813-56.634,48.858-45.821,84.977
			c10.236,34.192,45.083,54.729,79.954,47.119c30.83,22.163,71.393,25.447,105.387,8.533
			c50.962,34.591,117.165,37.173,170.667,6.656c63.654,17.363,129.331-20.164,146.694-83.818
			C522.95,278.232,485.424,212.555,421.77,195.192z M120.847,104.595c8.942-3.639,18.353-5.995,27.955-6.998
			c-42.051,62.591-25.399,147.421,37.192,189.471c3.888,2.612,7.909,5.023,12.045,7.222
			c-52.383,21.316-112.128-3.869-133.444-56.251C43.28,185.656,68.464,125.911,120.847,104.595z M468.386,344.371
			c-13.563,31.18-44.343,51.333-78.346,51.295c-5.271-0.015-10.528-0.529-15.701-1.536c9.375-8.182,17.663-17.531,24.661-27.819
			c2.71-3.856,1.781-9.178-2.074-11.888c-3.856-2.71-9.178-1.781-11.888,2.074c-0.04,0.057-0.079,0.114-0.117,0.171
			c-9.942,14.404-22.718,26.628-37.547,35.925l-0.768,0.427c-2.816,1.792-5.717,3.413-8.533,4.949
			c-44.543,23.426-98.712,18.374-138.155-12.885c-5.776-4.56-13.824-4.904-19.968-0.853c-13.842,9.253-30.643,12.996-47.104,10.496
			h-1.621c-2.885-0.499-5.736-1.183-8.533-2.048l-2.219-0.768c-2.651-0.892-5.244-1.947-7.765-3.157l-2.219-1.621
			c-2.048-0.597-3.755-1.707-5.461-2.901l-2.645-1.707c-11.157-8.087-19.606-19.362-24.235-32.341
			c-1.579-4.454-6.469-6.784-10.923-5.205s-6.784,6.469-5.205,10.923c2.761,7.775,6.642,15.106,11.52,21.76
			c-2.544,0.609-5.149,0.924-7.765,0.939c-19.174-0.51-34.305-16.468-33.795-35.642c0.467-17.539,13.94-31.975,31.405-33.648
			c2.389,0,9.643,0,14.848-0.427c23.1,18.33,51.932,27.91,81.408,27.051c32.283-0.02,63.514-11.479,88.149-32.341
			c7.189-6.096,8.074-16.866,1.978-24.055c-2.428-2.863-5.733-4.846-9.402-5.641c-30.842-6.743-56.849-27.335-70.485-55.808
			c23.324-37.99,64.648-61.203,109.227-61.355c40.418-0.043,78.442,19.159,102.4,51.712c-13.285,0.997-26.244,4.592-38.144,10.581
			c-4.131,2.268-5.641,7.456-3.372,11.587c2.174,3.959,7.057,5.538,11.138,3.602c15.915-8.199,34.006-11.184,51.712-8.533
			c6.159,0.927,12.197,2.53,18.005,4.779l3.328,1.621C467.39,250.881,487.184,301.155,468.386,344.371z"/>
	</g>
</g>
<g>
	<g>
		<path d="M328.441,239.652c-3.185-3.474-8.582-3.709-12.057-0.524c-0.301,0.276-0.582,0.574-0.841,0.89
			c-3.364,3.559-6.473,7.351-9.301,11.349c-2.434,4.036-1.135,9.28,2.901,11.714c3.632,2.19,8.321,1.38,11.008-1.901
			c2.361-3.337,4.956-6.502,7.765-9.472C331.391,248.524,331.626,243.126,328.441,239.652z"/>
	</g>
</g>
<g>
</g>
<g>
</g>
<g>
</g>
<g>
</g>
<g>
</g>
<g>
</g>
<g>
</g>
<g>
</g>
<g>
</g>
<g>
</g>
<g>
</g>
<g>
</g>
<g>
</g>
<g>
</g>
<g>
</g>
</svg>
