<?xml version="1.0" encoding="iso-8859-1"?>
<!-- Generator: Adobe Illustrator 19.0.0, SVG Export Plug-In . SVG Version: 6.00 Build 0)  -->
<svg version="1.1" id="Layer_1" xmlns="http://www.w3.org/2000/svg" xmlns:xlink="http://www.w3.org/1999/xlink" x="0px" y="0px"
	 viewBox="0 0 510.962 510.962" style="enable-background:new 0 0 510.962 510.962;" xml:space="preserve">
<g>
	<g>
		<path d="M414.109,95.347C363.415,21.535,262.483,2.794,188.671,53.488c-26.845,18.437-47.516,44.531-59.319,74.883
			c-31.462,4.614-59.025,23.514-74.667,51.2c-36.947,7.509-60.812,43.547-53.304,80.495c7.196,35.411,40.74,59.08,76.514,53.991
			l-35.157,60.672c-2.185,4.176-0.57,9.332,3.606,11.517c3.929,2.055,8.778,0.759,11.157-2.983l37.12-64.256
			c13.295,7.532,28.106,11.993,43.349,13.056l-18.432,31.829c-2.184,4.176-0.57,9.332,3.606,11.517
			c3.929,2.055,8.778,0.759,11.157-2.983l23.808-41.216c11.014-1.49,21.709-4.776,31.659-9.728
			c6.372,4.338,13.045,8.216,19.968,11.605l-31.573,54.443c-2.185,4.176-0.57,9.332,3.606,11.517
			c3.929,2.055,8.778,0.759,11.157-2.983l33.024-56.576c14.448,5.362,29.594,8.61,44.971,9.643l-7.424,12.8
			c-2.184,4.176-0.57,9.332,3.606,11.517c3.929,2.055,8.778,0.759,11.157-2.983l12.373-21.333
			c18.655-1.181,36.961-5.599,54.101-13.056l-39.765,68.523c-2.185,4.176-0.57,9.332,3.606,11.517
			c3.929,2.055,8.778,0.759,11.157-2.983l48.213-83.456c7.75,1.587,15.641,2.387,23.552,2.389c6.868-0.036,13.72-0.664,20.48-1.877
			l-8.533,14.677c-2.185,4.176-0.57,9.332,3.606,11.517c3.929,2.055,8.778,0.759,11.157-2.983l17.067-29.867
			c45.593-17.955,75.599-61.932,75.691-110.933C510.934,155.357,470.312,106.181,414.109,95.347z M469.841,246.633
			c-13.563,31.18-44.343,51.333-78.346,51.295c-5.271-0.015-10.528-0.529-15.701-1.536c9.367-8.157,17.655-17.477,24.661-27.733
			c2.71-3.856,1.782-9.178-2.074-11.888c-3.856-2.71-9.178-1.782-11.888,2.074c-0.04,0.057-0.079,0.114-0.118,0.172
			c-9.94,14.405-22.717,26.63-37.547,35.925v0.427c-2.901,1.792-5.803,3.499-8.533,5.035
			c-44.521,23.388-98.645,18.337-138.069-12.885c-5.776-4.56-13.824-4.904-19.968-0.853c-13.842,9.253-30.643,12.996-47.104,10.496
			h-1.621c-2.885-0.499-5.736-1.183-8.533-2.048l-2.219-0.768c-2.651-0.892-5.244-1.947-7.765-3.157l-3.072-1.792
			c-2.048-0.597-3.755-1.707-5.461-2.901l-2.645-1.707c-11.157-8.087-19.606-19.362-24.235-32.341
			c-1.579-4.454-6.469-6.784-10.923-5.205s-6.784,6.469-5.205,10.923c2.761,7.775,6.642,15.106,11.52,21.76
			c-2.544,0.609-5.149,0.924-7.765,0.939c-18.851,0.259-34.343-14.813-34.603-33.664s14.813-34.344,33.664-34.603h0.939
			c7.385,0,14.572,2.395,20.48,6.827c3.77,2.828,9.119,2.064,11.947-1.707s2.064-9.119-1.707-11.947
			c-4.324-3.239-9.134-5.774-14.251-7.509c10.733-20.467,31.091-34.115,54.101-36.267c-1.062,5.273-1.831,10.6-2.304,15.957
			c-0.283,4.704,3.302,8.747,8.006,9.03c0.176,0.011,0.351,0.016,0.527,0.015c4.52,0.008,8.262-3.51,8.533-8.021
			c0.607-9.986,2.383-19.867,5.291-29.44c1.024-3.243,2.133-6.485,3.413-9.643l0.939-2.219c0.939-2.219,1.877-4.437,2.901-6.571
			c1.024-2.133,1.963-3.84,3.072-5.803l1.451-2.475c3.212-5.553,6.835-10.859,10.837-15.872
			C224.734,51.836,305.3,43.042,360.416,87.31c8.479,6.81,16.055,14.672,22.546,23.397c-13.29,1.024-26.25,4.648-38.144,10.667
			c-4.258,2.02-6.072,7.11-4.052,11.367c2.02,4.258,7.11,6.072,11.367,4.052c0.152-0.072,0.302-0.149,0.45-0.23
			c15.915-8.199,34.006-11.184,51.712-8.533c6.159,0.927,12.197,2.53,18.005,4.779l3.328,1.536
			C468.845,153.143,488.64,203.417,469.841,246.633z"/>
	</g>
</g>
<g>
	<g>
		<path d="M156.487,219.08c-1.307-5.28-2.276-10.639-2.901-16.043c-0.589-4.713-4.887-8.056-9.6-7.467
			c-4.713,0.589-8.056,4.887-7.467,9.6c0.748,6.125,1.888,12.197,3.413,18.176c1.178,4.571,5.839,7.322,10.411,6.144
			S157.665,223.652,156.487,219.08z"/>
	</g>
</g>
<g>
	<g>
		<path d="M328.165,141.964c-3.284-2.684-8.04-2.549-11.166,0.317c-3.368,3.556-6.476,7.349-9.301,11.349
			c-2.986,3.646-2.451,9.022,1.195,12.009c3.646,2.986,9.022,2.451,12.009-1.195c0.259-0.316,0.495-0.651,0.706-1.001
			c2.361-3.337,4.956-6.503,7.765-9.472C332.355,150.322,331.815,144.946,328.165,141.964z"/>
	</g>
</g>
<g>
	<g>
		<path d="M37.3,401.452c-0.008-0.005-0.016-0.009-0.024-0.014c-4.078-2.362-9.299-0.972-11.661,3.106
			c-0.01,0.017-0.02,0.034-0.029,0.051l-8.533,14.677c-2.185,4.176-0.57,9.332,3.606,11.517c3.929,2.055,8.778,0.759,11.157-2.983
			l8.533-14.677C42.731,409.062,41.367,403.834,37.3,401.452z"/>
	</g>
</g>
<g>
	<g>
		<path d="M107.615,401.452c-0.008-0.005-0.016-0.009-0.024-0.014c-4.078-2.362-9.299-0.972-11.661,3.106
			c-0.01,0.017-0.02,0.034-0.029,0.051l-14.763,25.6c-2.185,4.176-0.57,9.332,3.606,11.517c3.929,2.055,8.778,0.759,11.157-2.983
			l14.763-25.6C113.046,409.062,111.681,403.834,107.615,401.452z"/>
	</g>
</g>
<g>
	<g>
		<path d="M174.663,410.056c-4.066-2.383-9.294-1.018-11.677,3.048c-0.005,0.008-0.009,0.016-0.014,0.024l-17.749,30.464
			c-2.185,4.176-0.57,9.332,3.606,11.517c3.929,2.055,8.778,0.759,11.157-2.983l17.749-30.464
			C180.065,417.605,178.695,412.429,174.663,410.056z"/>
	</g>
</g>
<g>
	<g>
		<path d="M144.796,461.256c-4.066-2.383-9.294-1.018-11.677,3.048c-0.005,0.008-0.009,0.016-0.014,0.024l-4.949,8.533
			c-2.528,3.977-1.354,9.251,2.624,11.779c3.977,2.528,9.251,1.354,11.779-2.624c0.129-0.202,0.249-0.41,0.36-0.622l4.949-8.533
			C150.199,468.805,148.829,463.629,144.796,461.256z"/>
	</g>
</g>
<g>
	<g>
		<path d="M259.252,386.177c-0.008-0.005-0.016-0.009-0.024-0.014c-4.078-2.362-9.299-0.972-11.661,3.106
			c-0.01,0.017-0.02,0.034-0.029,0.051l-38.4,66.475c-2.185,4.176-0.57,9.332,3.606,11.517c3.929,2.055,8.778,0.759,11.157-2.983
			l38.4-66.475C264.683,393.788,263.319,388.56,259.252,386.177z"/>
	</g>
</g>
<g>
	<g>
		<path d="M301.834,427.052c-0.008-0.005-0.016-0.009-0.024-0.014c-4.078-2.362-9.299-0.972-11.661,3.106
			c-0.01,0.017-0.02,0.034-0.029,0.051l-8.533,14.677c-2.185,4.176-0.57,9.332,3.606,11.517c3.929,2.055,8.778,0.759,11.157-2.983
			l8.533-14.677C307.265,434.662,305.9,429.434,301.834,427.052z"/>
	</g>
</g>
<g>
	<g>
		<path d="M400.052,367.318c-0.008-0.005-0.016-0.009-0.024-0.014c-4.078-2.362-9.299-0.972-11.661,3.106
			c-0.01,0.017-0.02,0.034-0.029,0.051l-14.763,25.6c-2.185,4.176-0.57,9.332,3.606,11.517c3.929,2.055,8.778,0.759,11.157-2.983
			l14.763-25.6C405.483,374.929,404.119,369.701,400.052,367.318z"/>
	</g>
</g>
<g>
	<g>
		<path d="M370.868,418.518c-0.008-0.005-0.016-0.009-0.024-0.014c-4.078-2.362-9.299-0.972-11.661,3.106
			c-0.01,0.017-0.02,0.034-0.029,0.051l-4.949,8.533c-2.528,3.977-1.354,9.251,2.623,11.779c3.977,2.528,9.251,1.354,11.779-2.623
			c0.129-0.202,0.249-0.41,0.36-0.623l4.949-8.533C376.299,426.129,374.935,420.901,370.868,418.518z"/>
	</g>
</g>
<g>
</g>
<g>
</g>
<g>
</g>
<g>
</g>
<g>
</g>
<g>
</g>
<g>
</g>
<g>
</g>
<g>
</g>
<g>
</g>
<g>
</g>
<g>
</g>
<g>
</g>
<g>
</g>
<g>
</g>
</svg>
