<?xml version="1.0" encoding="iso-8859-1"?>
<!-- Generator: Adobe Illustrator 19.0.0, SVG Export Plug-In . SVG Version: 6.00 Build 0)  -->
<svg version="1.1" id="Layer_1" xmlns="http://www.w3.org/2000/svg" xmlns:xlink="http://www.w3.org/1999/xlink" x="0px" y="0px"
	 viewBox="0 0 511.68 511.68" style="enable-background:new 0 0 511.68 511.68;" xml:space="preserve">
<g>
	<g>
		<path d="M151.302,408.196c-0.008-0.005-0.016-0.009-0.024-0.014c-4.078-2.362-9.299-0.972-11.661,3.106
			c-0.01,0.017-0.02,0.034-0.029,0.051l-14.763,25.6c-2.185,4.176-0.57,9.332,3.606,11.517c3.929,2.055,8.778,0.759,11.157-2.983
			l14.763-25.6C156.733,415.807,155.368,410.579,151.302,408.196z"/>
	</g>
</g>
<g>
	<g>
		<path d="M302.939,392.836c-0.008-0.005-0.016-0.009-0.024-0.014c-4.078-2.362-9.299-0.972-11.661,3.106
			c-0.01,0.017-0.02,0.034-0.029,0.051l-38.4,66.475c-2.185,4.176-0.57,9.332,3.606,11.517c3.929,2.055,8.778,0.759,11.157-2.983
			l38.4-66.475C308.37,400.447,307.006,395.219,302.939,392.836z"/>
	</g>
</g>
<g>
	<g>
		<path d="M54.135,325.182c-0.017-0.01-0.034-0.02-0.051-0.029c-4.039-2.202-9.097-0.806-11.435,3.157l-13.568,23.211
			c-2.185,4.176-0.57,9.332,3.606,11.517c3.929,2.055,8.778,0.759,11.157-2.983l13.397-23.211
			C59.603,332.766,58.213,327.545,54.135,325.182z"/>
	</g>
</g>
<g>
	<g>
		<path d="M460.806,339.93c-0.008-0.005-0.016-0.009-0.024-0.014c-4.078-2.362-9.299-0.972-11.661,3.106
			c-0.01,0.017-0.02,0.034-0.029,0.051l-14.763,25.6c-2.185,4.176-0.57,9.332,3.606,11.517c3.929,2.055,8.778,0.759,11.157-2.983
			l14.763-25.6C466.237,347.54,464.872,342.313,460.806,339.93z"/>
	</g>
</g>
<g>
	<g>
		<path d="M431.622,391.13c-0.008-0.005-0.016-0.009-0.024-0.014c-4.078-2.362-9.299-0.972-11.661,3.106
			c-0.01,0.017-0.02,0.034-0.029,0.051l-4.949,8.533c-2.528,3.977-1.354,9.251,2.623,11.779c3.977,2.528,9.251,1.354,11.779-2.623
			c0.129-0.202,0.249-0.41,0.36-0.623l4.949-8.533C437.053,398.74,435.688,393.513,431.622,391.13z"/>
	</g>
</g>
<g>
	<g>
		<path d="M415.129,87.329C364.435,13.517,263.503-5.224,189.691,45.47c-26.845,18.437-47.516,44.531-59.319,74.883
			c-31.462,4.614-59.025,23.514-74.667,51.2c-37.058,6.944-61.469,42.615-54.525,79.673s42.615,61.469,79.673,54.525
			c1.498-0.281,2.987-0.612,4.463-0.992c30.83,22.163,71.393,25.447,105.387,8.533l4.096,2.219l-31.573,54.613
			c-2.185,4.176-0.57,9.332,3.606,11.517c3.929,2.055,8.778,0.759,11.157-2.983l31.659-54.613
			c11.985,6.044,24.687,10.545,37.803,13.397v3.669h-8.533c-4.713,0-8.533,3.82-8.533,8.533s3.82,8.533,8.533,8.533h8.533v8.533
			c0,4.713,3.82,8.533,8.533,8.533c4.713,0,8.533-3.82,8.533-8.533v-8.533h8.533c4.713,0,8.533-3.82,8.533-8.533
			s-3.821-8.533-8.533-8.533h-8.533v-1.024c5.667,0.637,11.364,0.979,17.067,1.024c15.61-0.029,31.132-2.328,46.08-6.827
			c-0.903,0.696-1.658,1.567-2.219,2.56l-18.261,31.744c-2.185,4.176-0.57,9.332,3.606,11.517c3.929,2.055,8.778,0.759,11.157-2.983
			l18.347-31.744c2.362-4.078,0.972-9.299-3.106-11.661c-0.017-0.01-0.034-0.02-0.051-0.029c-1.326-0.752-2.828-1.135-4.352-1.109
			c9.92-3.334,19.493-7.621,28.587-12.8c10.146,2.802,20.621,4.237,31.147,4.267c65.979-0.167,119.331-53.789,119.165-119.768
			C511.536,147.245,471.101,98.268,415.129,87.329z M470.915,238.22c-13.451,31.353-44.283,51.681-78.399,51.69
			c-5.271-0.016-10.528-0.53-15.701-1.536c9.368-8.156,17.656-17.476,24.661-27.733c2.71-3.856,1.782-9.178-2.074-11.888
			c-3.856-2.71-9.178-1.782-11.888,2.074c-0.04,0.057-0.079,0.114-0.118,0.172c-9.704,14.187-22.151,26.287-36.608,35.584h-0.768
			c-45.755,29.268-105.039,26.287-147.627-7.424c-5.776-4.56-13.824-4.904-19.968-0.853c-13.842,9.253-30.643,12.996-47.104,10.496
			H133.7c-2.885-0.499-5.736-1.183-8.533-2.048l-2.219-0.768c-2.651-0.892-5.244-1.947-7.765-3.157l-2.219-1.451
			c-2.048-0.597-3.755-1.707-5.461-2.901l-2.56-1.707c-11.157-8.087-19.606-19.362-24.235-32.341
			c-1.579-4.454-6.469-6.784-10.923-5.205s-6.784,6.469-5.205,10.923c2.768,7.772,6.648,15.102,11.52,21.76
			c-2.572,0.616-5.206,0.931-7.851,0.939c-18.851,0.259-34.343-14.813-34.603-33.664s14.813-34.344,33.664-34.603h0.939
			c7.385,0,14.572,2.395,20.48,6.827c3.77,2.828,9.119,2.064,11.947-1.707s2.064-9.119-1.707-11.947
			c-4.324-3.239-9.134-5.774-14.251-7.509c10.733-20.467,31.091-34.115,54.101-36.267c-1.061,5.273-1.831,10.6-2.304,15.957
			c-0.283,4.704,3.302,8.747,8.006,9.03c0.176,0.011,0.351,0.016,0.527,0.015c4.52,0.008,8.262-3.51,8.533-8.021
			c0.607-9.986,2.383-19.867,5.291-29.44c1.024-3.328,2.133-6.571,3.413-9.728l0.768-1.792c0.939-2.389,1.963-4.693,3.072-6.997
			c1.109-2.304,1.877-3.669,2.901-5.461l1.621-2.731c3.216-5.524,6.839-10.8,10.837-15.787
			c44.245-55.134,124.808-63.962,179.942-19.717c8.481,6.806,16.06,14.664,22.554,23.386c-13.282,1.013-26.239,4.607-38.144,10.581
			c-4.131,2.268-5.641,7.456-3.372,11.587c2.174,3.959,7.057,5.538,11.138,3.602c21.84-10.953,47.3-12.131,70.059-3.243l2.475,0.939
			C469.448,144.737,489.496,194.91,470.915,238.22z"/>
	</g>
</g>
<g>
	<g>
		<path d="M157.508,211.063c-1.311-5.28-2.28-10.638-2.901-16.043c-0.589-4.713-4.887-8.056-9.6-7.467
			c-4.713,0.589-8.056,4.887-7.467,9.6c0.751,6.125,1.891,12.196,3.413,18.176c1.178,4.571,5.839,7.322,10.411,6.144
			S158.686,215.634,157.508,211.063z"/>
	</g>
</g>
<g>
	<g>
		<path d="M330.137,133.921c-3.44-3.252-8.865-3.099-12.117,0.341c-3.37,3.584-6.478,7.406-9.301,11.435
			c-2.71,3.865-1.774,9.194,2.091,11.904c3.865,2.71,9.194,1.774,11.904-2.091c2.356-3.341,4.952-6.506,7.765-9.472
			C333.73,142.598,333.577,137.173,330.137,133.921z"/>
	</g>
</g>
<g>
	<g>
		<path d="M102.382,400.844h-8.533v-8.533c0-4.713-3.821-8.533-8.533-8.533s-8.533,3.821-8.533,8.533v8.533h-8.533
			c-4.713,0-8.533,3.82-8.533,8.533s3.82,8.533,8.533,8.533h8.533v8.533c0,4.713,3.82,8.533,8.533,8.533s8.533-3.82,8.533-8.533
			v-8.533h8.533c4.713,0,8.533-3.82,8.533-8.533S107.095,400.844,102.382,400.844z"/>
	</g>
</g>
<g>
	<g>
		<path d="M136.516,341.111h-8.533v-8.533c0-4.713-3.82-8.533-8.533-8.533s-8.533,3.821-8.533,8.533v8.533h-8.533
			c-4.713,0-8.533,3.82-8.533,8.533s3.82,8.533,8.533,8.533h8.533v8.533c0,4.713,3.82,8.533,8.533,8.533s8.533-3.82,8.533-8.533
			v-8.533h8.533c4.713,0,8.533-3.82,8.533-8.533S141.228,341.111,136.516,341.111z"/>
	</g>
</g>
<g>
	<g>
		<path d="M204.782,460.577h-8.533v-8.533c0-4.713-3.82-8.533-8.533-8.533s-8.533,3.821-8.533,8.533v8.533h-8.533
			c-4.713,0-8.533,3.82-8.533,8.533s3.82,8.533,8.533,8.533h8.533v8.533c0,4.713,3.82,8.533,8.533,8.533s8.533-3.82,8.533-8.533
			v-8.533h8.533c4.713,0,8.533-3.82,8.533-8.533S209.495,460.577,204.782,460.577z"/>
	</g>
</g>
<g>
	<g>
		<path d="M238.916,400.844h-8.533v-8.533c0-4.713-3.82-8.533-8.533-8.533s-8.533,3.821-8.533,8.533v8.533h-8.533
			c-4.713,0-8.533,3.82-8.533,8.533s3.82,8.533,8.533,8.533h8.533v8.533c0,4.713,3.82,8.533,8.533,8.533s8.533-3.82,8.533-8.533
			v-8.533h8.533c4.713,0,8.533-3.82,8.533-8.533S243.628,400.844,238.916,400.844z"/>
	</g>
</g>
<g>
	<g>
		<path d="M341.316,460.577h-8.533v-8.533c0-4.713-3.82-8.533-8.533-8.533s-8.533,3.821-8.533,8.533v8.533h-8.533
			c-4.713,0-8.533,3.82-8.533,8.533s3.82,8.533,8.533,8.533h8.533v8.533c0,4.713,3.82,8.533,8.533,8.533s8.533-3.82,8.533-8.533
			v-8.533h8.533c4.713,0,8.533-3.82,8.533-8.533S346.028,460.577,341.316,460.577z"/>
	</g>
</g>
<g>
	<g>
		<path d="M375.449,400.844h-8.533v-8.533c0-4.713-3.82-8.533-8.533-8.533s-8.533,3.821-8.533,8.533v8.533h-8.533
			c-4.713,0-8.533,3.82-8.533,8.533s3.821,8.533,8.533,8.533h8.533v8.533c0,4.713,3.82,8.533,8.533,8.533s8.533-3.82,8.533-8.533
			v-8.533h8.533c4.713,0,8.533-3.82,8.533-8.533S380.162,400.844,375.449,400.844z"/>
	</g>
</g>
<g>
	<g>
		<path d="M409.582,341.111h-8.533v-8.533c0-4.713-3.821-8.533-8.533-8.533c-4.713,0-8.533,3.821-8.533,8.533v8.533h-8.533
			c-4.713,0-8.533,3.82-8.533,8.533s3.82,8.533,8.533,8.533h8.533v8.533c0,4.713,3.821,8.533,8.533,8.533
			c4.713,0,8.533-3.82,8.533-8.533v-8.533h8.533c4.713,0,8.533-3.82,8.533-8.533S414.295,341.111,409.582,341.111z"/>
	</g>
</g>
<g>
</g>
<g>
</g>
<g>
</g>
<g>
</g>
<g>
</g>
<g>
</g>
<g>
</g>
<g>
</g>
<g>
</g>
<g>
</g>
<g>
</g>
<g>
</g>
<g>
</g>
<g>
</g>
<g>
</g>
</svg>
