<?xml version="1.0" encoding="iso-8859-1"?>
<!-- Generator: Adobe Illustrator 19.0.0, SVG Export Plug-In . SVG Version: 6.00 Build 0)  -->
<svg version="1.1" id="Layer_1" xmlns="http://www.w3.org/2000/svg" xmlns:xlink="http://www.w3.org/1999/xlink" x="0px" y="0px"
	 viewBox="0 0 443.733 443.733" style="enable-background:new 0 0 443.733 443.733;" xml:space="preserve">
<g>
	<g>
		<path d="M426.667,204.8h-44.117l26.624-26.624c6.669-6.669,6.669-17.481,0-24.149s-17.481-6.669-24.149,0L334.251,204.8h-95.317
			v-95.317l49.92-49.749c6.716-6.716,6.716-17.604,0-24.32c-6.716-6.716-17.604-6.716-24.32,0l-25.6,25.6V17.067
			C238.933,7.641,231.292,0,221.867,0S204.8,7.641,204.8,17.067v44.117l-26.539-26.453c-6.669-6.669-17.481-6.669-24.149,0
			c-6.669,6.669-6.669,17.481,0,24.149l50.688,50.603V204.8h-95.317L58.88,154.283c-7.159-6.131-17.933-5.297-24.064,1.862
			c-5.472,6.389-5.472,15.813,0,22.202L61.269,204.8H17.067C7.641,204.8,0,212.441,0,221.867s7.641,17.067,17.067,17.067h44.117
			l-26.539,26.539c-6.669,6.669-6.669,17.481,0,24.149c6.669,6.669,17.481,6.669,24.149,0l50.688-50.688H204.8v95.317
			l-50.773,50.773c-6.669,6.669-6.669,17.481,0,24.149c6.669,6.669,17.481,6.669,24.149,0l26.624-26.624v44.117
			c0,9.426,7.641,17.067,17.067,17.067s17.067-7.641,17.067-17.067v-44.117l26.453,26.453c6.669,6.669,17.481,6.669,24.149,0
			c6.669-6.669,6.669-17.481,0-24.149l-50.603-50.603v-95.317h95.317l51.2,51.2c6.739,6.669,17.609,6.611,24.277-0.128
			c6.669-6.739,6.611-17.609-0.128-24.277l-27.051-26.795h44.117c9.426,0,17.067-7.641,17.067-17.067S436.092,204.8,426.667,204.8z"
			/>
	</g>
</g>
<g>
	<g>
		<path d="M334.677,257.28l-3.925-1.621c-4.163-2.209-9.329-0.624-11.537,3.539c-2.209,4.163-0.624,9.329,3.539,11.537
			c0.483,0.256,0.99,0.466,1.513,0.625l4.011,1.707c4.468,1.5,9.306-0.906,10.805-5.374
			C340.454,263.607,338.564,259.141,334.677,257.28z"/>
	</g>
</g>
<g>
	<g>
		<path d="M302.336,244.139l-2.048-0.853c-4.468-1.5-9.306,0.906-10.805,5.374c-1.371,4.085,0.518,8.552,4.405,10.413l2.048,0.853
			c4.468,1.5,9.306-0.906,10.805-5.374C308.113,250.466,306.223,245.999,302.336,244.139z"/>
	</g>
</g>
<g>
	<g>
		<path d="M156.104,185.225c-0.315-0.151-0.638-0.282-0.969-0.393l-13.909-5.632c-4.251-2.035-9.346-0.238-11.381,4.013
			c-2.035,4.251-0.238,9.346,4.013,11.381c0.315,0.151,0.638,0.282,0.969,0.393l13.909,5.632c4.251,2.035,9.346,0.238,11.381-4.013
			C162.152,192.355,160.355,187.259,156.104,185.225z"/>
	</g>
</g>
<g>
	<g>
		<path d="M111.957,165.461l-3.243-1.28c-4.383-1.744-9.35,0.396-11.093,4.779c-1.744,4.383,0.396,9.35,4.779,11.093l3.157,1.28
			c4.383,1.767,9.369-0.353,11.136-4.736C118.461,172.214,116.34,167.229,111.957,165.461z"/>
	</g>
</g>
<g>
	<g>
		<path d="M264.109,122.485c-4.085-1.371-8.552,0.518-10.413,4.405l-7.765,19.2c-1.5,4.468,0.906,9.306,5.374,10.805
			c4.085,1.371,8.552-0.518,10.413-4.405l7.765-19.2C270.982,128.823,268.576,123.985,264.109,122.485z"/>
	</g>
</g>
<g>
	<g>
		<path d="M278.786,81.952c-4.085-1.371-8.552,0.518-10.413,4.405l-2.048,4.949c-1.758,4.359,0.341,9.319,4.693,11.093
			c4.359,1.758,9.319-0.341,11.093-4.693l2.048-4.949C285.66,88.289,283.254,83.452,278.786,81.952z"/>
	</g>
</g>
<g>
	<g>
		<path d="M182.687,321.651c-0.024-0.01-0.049-0.02-0.073-0.03c-4.359-1.758-9.319,0.341-11.093,4.693l-4.608,11.349
			c-1.5,4.468,0.906,9.306,5.374,10.805c4.085,1.371,8.552-0.518,10.413-4.405l4.608-11.264
			C189.11,328.446,187.041,323.454,182.687,321.651z"/>
	</g>
</g>
<g>
	<g>
		<path d="M197.805,286.837c-4.085-1.372-8.552,0.518-10.413,4.405l-2.304,5.717c-1.744,4.378,0.392,9.341,4.77,11.085
			c0.981,0.391,2.025,0.596,3.081,0.605c3.476,0.017,6.615-2.075,7.936-5.291l2.304-5.717
			C204.679,293.175,202.273,288.337,197.805,286.837z"/>
	</g>
</g>
<g>
	<g>
		<path d="M116.437,267.136c-1.767-4.383-6.753-6.503-11.136-4.736l-2.901,1.28c-4.383,1.732-6.532,6.689-4.8,11.072
			c1.279,3.236,4.393,5.371,7.872,5.397c1.081,0.003,2.152-0.2,3.157-0.597l3.072-1.28
			C116.084,276.505,118.205,271.519,116.437,267.136z"/>
	</g>
</g>
<g>
	<g>
		<path d="M160.51,248.096c-1.5-4.468-6.338-6.874-10.805-5.374c-0.331,0.111-0.654,0.242-0.969,0.393l-13.909,5.632
			c-4.487,1.442-6.955,6.248-5.513,10.735c1.196,3.722,4.769,6.156,8.671,5.905c1.127-0.067,2.229-0.357,3.243-0.853l13.909-5.632
			C159.604,257.401,162.01,252.564,160.51,248.096z"/>
	</g>
</g>
<g>
	<g>
		<path d="M310.018,186.763c-1.861-3.887-6.327-5.777-10.413-4.405l-5.717,2.304c-4.468,1.5-6.874,6.338-5.374,10.805
			s6.338,6.874,10.805,5.374c0.331-0.111,0.654-0.242,0.969-0.393l5.717-2.304C310.256,196.109,312.053,191.014,310.018,186.763z"/>
	</g>
</g>
<g>
	<g>
		<path d="M357.118,167.115c-1.5-4.468-6.338-6.874-10.805-5.374c-0.331,0.111-0.654,0.242-0.969,0.393l-16.299,6.571
			c-4.468,1.5-6.874,6.338-5.374,10.805s6.338,6.874,10.805,5.374c0.331-0.111,0.654-0.242,0.968-0.393l16.299-6.571
			C356.212,176.42,358.618,171.582,357.118,167.115z"/>
	</g>
</g>
<g>
	<g>
		<path d="M203.093,146.091l-2.304-5.717c-2.035-4.251-7.13-6.047-11.381-4.013c-3.887,1.861-5.777,6.327-4.405,10.413l2.304,5.717
			c2.035,4.251,7.13,6.048,11.381,4.013C202.575,154.643,204.465,150.176,203.093,146.091z"/>
	</g>
</g>
<g>
	<g>
		<path d="M186.453,109.824l-5.717-15.189c-2.035-4.251-7.13-6.047-11.381-4.013c-3.887,1.861-5.777,6.327-4.405,10.413
			l5.717,15.189c2.035,4.251,7.13,6.047,11.381,4.013C185.935,118.376,187.825,113.909,186.453,109.824z"/>
	</g>
</g>
<g>
	<g>
		<path d="M284.16,342.784l-3.243-8.107c-1.5-4.468-6.337-6.874-10.805-5.374c-4.468,1.5-6.874,6.338-5.374,10.805
			c0.111,0.331,0.242,0.654,0.393,0.969l3.243,8.021c1.294,3.249,4.439,5.379,7.936,5.376c1.081,0.003,2.152-0.2,3.157-0.597
			C283.819,352.103,285.918,347.143,284.16,342.784z"/>
	</g>
</g>
<g>
	<g>
		<path d="M265.643,300.8l-3.925-9.557c-2.035-4.251-7.13-6.047-11.381-4.013c-3.887,1.861-5.777,6.327-4.405,10.413l3.925,9.557
			c2.035,4.251,7.13,6.047,11.381,4.013C265.124,309.352,267.014,304.885,265.643,300.8z"/>
	</g>
</g>
<g>
	<g>
		<path d="M362.539,84.437c-3.323-3.346-8.729-3.365-12.075-0.043l-34.731,34.645V93.867c0-4.713-3.82-8.533-8.533-8.533
			s-8.533,3.82-8.533,8.533v42.155l-48.896,48.64c-3.346,3.323-3.365,8.729-0.043,12.075c3.323,3.346,8.729,3.365,12.075,0.043
			l52.309-51.712c0.539,0.051,1.082,0.051,1.621,0h34.133c4.713,0,8.533-3.82,8.533-8.533s-3.82-8.533-8.533-8.533h-18.944
			l31.573-31.488C365.842,93.189,365.861,87.783,362.539,84.437z"/>
	</g>
</g>
<g>
	<g>
		<path d="M193.237,252.971c-3.323-3.346-8.729-3.365-12.075-0.043L126.72,307.2H93.867c-4.713,0-8.533,3.82-8.533,8.533
			s3.82,8.533,8.533,8.533h15.787L77.909,355.84c-3.346,3.323-3.365,8.729-0.043,12.075c3.323,3.346,8.729,3.365,12.075,0.043
			L128,330.069V358.4c0,4.713,3.82,8.533,8.533,8.533s8.533-3.821,8.533-8.533v-42.667c-0.043-0.755-0.187-1.501-0.427-2.219
			l48.555-48.469C196.541,261.723,196.56,256.317,193.237,252.971z"/>
	</g>
</g>
<g>
	<g>
		<path d="M191.232,185.344l-46.592-46.421c0.255-0.772,0.399-1.577,0.427-2.389V93.867c0-4.713-3.82-8.533-8.533-8.533
			S128,89.154,128,93.867v28.501L89.941,84.48c-3.346-3.323-8.752-3.303-12.075,0.043c-3.323,3.346-3.303,8.752,0.043,12.075
			L109.483,128H93.867c-4.713,0-8.533,3.82-8.533,8.533s3.82,8.533,8.533,8.533h32.683l52.651,52.395
			c3.346,3.323,8.752,3.303,12.075-0.043C194.597,194.073,194.578,188.667,191.232,185.344z"/>
	</g>
</g>
<g>
	<g>
		<path d="M362.496,355.84l-31.744-31.573h19.115c4.713,0,8.533-3.82,8.533-8.533s-3.82-8.533-8.533-8.533h-34.133
			c-0.596-0.063-1.196-0.063-1.792,0l-54.528-54.016c-3.6-3.041-8.984-2.588-12.025,1.012c-2.716,3.215-2.682,7.929,0.079,11.105
			l51.2,51.2V358.4c0,4.713,3.821,8.533,8.533,8.533s8.533-3.821,8.533-8.533v-25.003l34.731,34.56
			c3.346,3.323,8.752,3.303,12.075-0.043C365.861,364.569,365.842,359.163,362.496,355.84z"/>
	</g>
</g>
<g>
</g>
<g>
</g>
<g>
</g>
<g>
</g>
<g>
</g>
<g>
</g>
<g>
</g>
<g>
</g>
<g>
</g>
<g>
</g>
<g>
</g>
<g>
</g>
<g>
</g>
<g>
</g>
<g>
</g>
</svg>
