<?xml version="1.0" encoding="iso-8859-1"?>
<!-- Generator: Adobe Illustrator 19.0.0, SVG Export Plug-In . SVG Version: 6.00 Build 0)  -->
<svg version="1.1" id="Layer_1" xmlns="http://www.w3.org/2000/svg" xmlns:xlink="http://www.w3.org/1999/xlink" x="0px" y="0px"
	 viewBox="0 0 503.467 503.467" style="enable-background:new 0 0 503.467 503.467;" xml:space="preserve">
<g>
	<g>
		<path d="M42.667,202.85h-25.6C7.641,202.85,0,210.491,0,219.917s7.641,17.067,17.067,17.067h25.6
			c9.426,0,17.067-7.641,17.067-17.067S52.092,202.85,42.667,202.85z"/>
	</g>
</g>
<g>
	<g>
		<path d="M354.133,57.783h-4.267c-24.497,0.009-47.808,10.546-64,28.928c-6.921,6.399-7.344,17.197-0.945,24.117
			c6.399,6.921,17.197,7.344,24.117,0.945c0.908-0.84,1.722-1.775,2.428-2.791c9.768-10.922,23.748-17.135,38.4-17.067h4.267
			c30.633,0,55.467,24.833,55.467,55.467c0,30.633-24.833,55.467-55.467,55.467H93.867c-9.426,0-17.067,7.641-17.067,17.067
			s7.641,17.067,17.067,17.067h260.267c49.485,0,89.6-40.115,89.6-89.6C443.733,97.899,403.618,57.783,354.133,57.783z"/>
	</g>
</g>
<g>
	<g>
		<path d="M473.856,117.517c-1.641-4.418-6.552-6.67-10.97-5.029c-3.706,1.376-5.981,5.117-5.499,9.04
			c8.821,32.713,0.253,67.664-22.699,92.587c-3.205,3.464-2.995,8.87,0.469,12.075c3.464,3.205,8.87,2.995,12.075-0.469
			C474.018,196.573,484.059,155.764,473.856,117.517z"/>
	</g>
</g>
<g>
	<g>
		<path d="M462.867,90.406c-0.111-0.213-0.231-0.42-0.36-0.623c-4.277-7.455-9.372-14.41-15.189-20.736
			c-2.582-3.943-7.871-5.046-11.814-2.464s-5.046,7.871-2.464,11.814c0.575,0.878,1.308,1.643,2.161,2.256
			c4.816,5.41,9.023,11.334,12.544,17.664c2.185,4.176,7.341,5.79,11.517,3.606C463.437,99.738,465.051,94.582,462.867,90.406z"/>
	</g>
</g>
<g>
	<g>
		<path d="M427.453,51.653c-0.252-0.19-0.515-0.365-0.787-0.526c-2.901-1.877-5.803-3.669-8.533-5.376
			c-4.124-2.356-9.377-0.924-11.733,3.2c-2.356,4.124-0.924,9.377,3.2,11.733c2.617,1.422,5.148,2.958,7.595,4.608
			c3.766,2.833,9.116,2.076,11.949-1.69C431.977,59.836,431.22,54.486,427.453,51.653z"/>
	</g>
</g>
<g>
	<g>
		<path d="M283.648,117.517c-9.426-1.131-17.984,5.593-19.115,15.019c-0.213,3.524-0.213,7.057,0,10.581
			c0,9.426,7.641,17.067,17.067,17.067c9.426,0,17.067-7.641,17.067-17.067c-0.131-2.16-0.131-4.326,0-6.485
			C299.798,127.206,293.074,118.648,283.648,117.517z"/>
	</g>
</g>
<g>
	<g>
		<path d="M334.404,295.333c-9.82-4.716-20.576-7.16-31.47-7.15H102.4c-9.426,0-17.067,7.641-17.067,17.067
			s7.641,17.067,17.067,17.067h200.533c21.208-0.021,38.417,17.154,38.438,38.362c0.006,5.774-1.291,11.474-3.793,16.678
			c-4.077,8.507-0.485,18.707,8.021,22.784s18.707,0.485,22.784-8.021C385.727,356.009,370.514,312.677,334.404,295.333z"/>
	</g>
</g>
<g>
	<g>
		<path d="M340.321,405.387c-0.032-0.071-0.064-0.141-0.097-0.211c-3.645-8.692-13.647-12.784-22.339-9.138
			c-0.006,0.003-0.012,0.005-0.018,0.008c-2.735,1.182-5.599,2.041-8.533,2.56c-9.426,0.731-16.474,8.964-15.744,18.389
			s8.964,16.474,18.389,15.744h2.731c5.863-0.887,11.595-2.492,17.067-4.779C340.369,424.086,344.195,413.979,340.321,405.387z"/>
	</g>
</g>
<g>
	<g>
		<path d="M280.576,393.911c-9.975-6.234-16.037-17.165-16.043-28.928c0-9.426-7.641-17.067-17.067-17.067
			s-17.067,7.641-17.067,17.067c-0.018,23.556,12.11,45.457,32.085,57.941c8.012,4.996,18.556,2.551,23.552-5.461
			S288.588,398.907,280.576,393.911z"/>
	</g>
</g>
<g>
	<g>
		<path d="M390.912,302.605c-2.853-3.923-5.99-7.631-9.387-11.093c-3.299-3.37-8.705-3.427-12.075-0.128
			c-3.37,3.299-3.427,8.705-0.128,12.075c2.805,2.852,5.4,5.904,7.765,9.131c2.913,3.704,8.278,4.346,11.983,1.432
			C392.562,311.275,393.363,306.309,390.912,302.605z"/>
	</g>
</g>
<g>
	<g>
		<path d="M406.955,337.421c-0.957-4.615-5.473-7.58-10.088-6.623c-0.079,0.016-0.159,0.034-0.237,0.053
			c-4.562,1.097-7.383,5.671-6.315,10.24c1.494,6.29,2.239,12.735,2.219,19.2c-0.039,17.018-5.443,33.591-15.445,47.36
			c-2.913,3.704-2.272,9.069,1.432,11.983s9.069,2.272,11.983-1.432c0.144-0.183,0.281-0.372,0.409-0.567
			c12.11-16.671,18.65-36.739,18.688-57.344C409.61,352.59,408.722,344.915,406.955,337.421z"/>
	</g>
</g>
<g>
	<g>
		<path d="M370.517,428.045c-2.875-3.817-8.3-4.581-12.117-1.707c-6.227,4.527-13.065,8.147-20.309,10.752
			c-4.434,1.597-6.734,6.486-5.137,10.92c1.263,3.507,4.656,5.788,8.38,5.635c0.989-0.001,1.971-0.174,2.901-0.512
			c8.766-3.136,17.041-7.503,24.576-12.971C372.628,437.287,373.392,431.862,370.517,428.045z"/>
	</g>
</g>
<g>
	<g>
		<path d="M311.04,441.783h-6.912c-4.713,0-8.533,3.82-8.533,8.533s3.82,8.533,8.533,8.533h6.912c4.713,0,8.533-3.82,8.533-8.533
			S315.753,441.783,311.04,441.783z"/>
	</g>
</g>
<g>
	<g>
		<path d="M366.933,254.05h-25.6c-4.713,0-8.533,3.821-8.533,8.533s3.821,8.533,8.533,8.533h25.6c4.713,0,8.533-3.82,8.533-8.533
			S371.646,254.05,366.933,254.05z"/>
	</g>
</g>
<g>
	<g>
		<path d="M170.667,254.05H153.6c-4.713,0-8.533,3.821-8.533,8.533s3.821,8.533,8.533,8.533h17.067c4.713,0,8.533-3.82,8.533-8.533
			S175.38,254.05,170.667,254.05z"/>
	</g>
</g>
<g>
	<g>
		<path d="M298.667,254.05H204.8c-4.713,0-8.533,3.821-8.533,8.533s3.82,8.533,8.533,8.533h93.867c4.713,0,8.533-3.82,8.533-8.533
			S303.38,254.05,298.667,254.05z"/>
	</g>
</g>
<g>
	<g>
		<path d="M93.867,254.05H34.133c-4.713,0-8.533,3.821-8.533,8.533s3.821,8.533,8.533,8.533h59.733c4.713,0,8.533-3.82,8.533-8.533
			S98.58,254.05,93.867,254.05z"/>
	</g>
</g>
<g>
	<g>
		<path d="M76.8,330.85H59.733c-4.713,0-8.533,3.82-8.533,8.533s3.82,8.533,8.533,8.533H76.8c4.713,0,8.533-3.82,8.533-8.533
			S81.513,330.85,76.8,330.85z"/>
	</g>
</g>
<g>
	<g>
		<path d="M162.133,330.85h-51.2c-4.713,0-8.533,3.82-8.533,8.533s3.82,8.533,8.533,8.533h51.2c4.713,0,8.533-3.82,8.533-8.533
			S166.846,330.85,162.133,330.85z"/>
	</g>
</g>
<g>
	<g>
		<path d="M460.8,254.05h-59.733c-4.713,0-8.533,3.821-8.533,8.533s3.821,8.533,8.533,8.533H460.8c14.138,0,25.6,11.461,25.6,25.6
			s-11.462,25.6-25.6,25.6c-9.426,0-17.067-7.641-17.067-17.067c0-4.713-3.82-8.533-8.533-8.533s-8.533,3.82-8.533,8.533
			c0,18.851,15.282,34.133,34.133,34.133c23.564,0,42.667-19.103,42.667-42.667S484.364,254.05,460.8,254.05z"/>
	</g>
</g>
<g>
	<g>
		<path d="M85.333,177.25H76.8c-4.713,0-8.533,3.82-8.533,8.533s3.82,8.533,8.533,8.533h8.533c4.713,0,8.533-3.821,8.533-8.533
			S90.046,177.25,85.333,177.25z"/>
	</g>
</g>
<g>
	<g>
		<path d="M186.34,133.815c-1.071-0.057-2.144-0.057-3.214,0c-13.714,0-24.832,11.118-24.832,24.832c0,4.713,3.82,8.533,8.533,8.533
			s8.533-3.82,8.533-8.533c0-4.289,3.477-7.765,7.765-7.765c7.281,0.586,12.709,6.964,12.122,14.246
			c-0.521,6.467-5.655,11.602-12.122,12.122h-63.659c-4.713,0-8.533,3.82-8.533,8.533s3.82,8.533,8.533,8.533h63.659
			c16.707,0.888,30.97-11.936,31.858-28.643C215.871,148.966,203.047,134.703,186.34,133.815z"/>
	</g>
</g>
<g>
</g>
<g>
</g>
<g>
</g>
<g>
</g>
<g>
</g>
<g>
</g>
<g>
</g>
<g>
</g>
<g>
</g>
<g>
</g>
<g>
</g>
<g>
</g>
<g>
</g>
<g>
</g>
<g>
</g>
</svg>
